<?xml version="1.0" standalone="no"?>
<!DOCTYPE svg PUBLIC "-//W3C//DTD SVG 20010904//EN"
 "http://www.w3.org/TR/2001/REC-SVG-20010904/DTD/svg10.dtd">
<svg version="1.0" xmlns="http://www.w3.org/2000/svg"
 width="660.000000pt" height="660.000000pt" viewBox="0 0 660.000000 660.000000"
 preserveAspectRatio="xMidYMid meet">
<metadata>
Created by potrace 1.14, written by Peter Selinger 2001-2017
</metadata>
<g transform="translate(0.000000,660.000000) scale(0.100000,-0.100000)"
fill="#000000" stroke="none">
<path d="M0 3300 l0 -3300 3300 0 3300 0 0 3300 0 3300 -3300 0 -3300 0 0
-3300z m1539 1783 c125 -72 221 -170 319 -328 l49 -80 144 -6 c159 -7 344 -35
488 -74 68 -19 97 -22 107 -14 7 5 40 46 73 90 51 67 61 85 61 120 0 45 34 89
70 89 30 0 80 -53 80 -85 0 -27 -39 -75 -62 -75 -13 -1 -138 -162 -138 -178 0
-14 120 -47 128 -36 4 6 27 36 52 68 32 42 45 69 46 94 1 39 40 82 73 82 27 0
68 -36 75 -65 10 -38 -18 -84 -55 -92 -21 -4 -43 -23 -76 -65 -25 -33 -44 -61
-42 -62 2 -2 44 -22 92 -44 l88 -41 -17 -33 c-37 -73 -153 -228 -233 -310
l-84 -88 -262 0 -263 0 -13 31 c-26 65 -87 115 -161 133 -32 7 -33 14 -18 120
13 85 51 183 102 260 21 32 36 62 32 65 -3 3 -197 7 -431 9 -473 4 -512 0
-669 -62 -116 -46 -251 -136 -204 -136 5 0 17 -11 26 -25 15 -23 15 -27 0 -50
-15 -23 -23 -25 -89 -25 l-72 0 -27 -43 -27 -42 153 -3 c139 -2 155 -4 171
-23 15 -15 17 -25 9 -47 l-9 -27 -238 -3 c-186 -2 -237 0 -237 10 1 55 127
245 219 329 167 154 362 230 636 250 76 5 141 11 142 13 2 1 -2 52 -8 112 -9
94 -33 192 -74 297 -11 26 20 22 74 -10z m4803 -112 c22 -25 28 -41 28 -77 0
-39 -5 -51 -34 -80 -48 -48 -101 -48 -153 0 -38 33 -38 33 -86 21 -101 -26
-173 -100 -228 -235 l-33 -80 -32 31 -33 32 19 48 c25 68 66 135 113 186 43
47 140 100 199 110 25 3 46 15 59 32 32 40 59 52 109 47 34 -3 51 -11 72 -35z
m-2441 -131 c72 -13 184 -69 244 -122 26 -23 123 -133 215 -243 393 -474 641
-777 647 -790 3 -10 -2 -15 -16 -15 -51 0 -124 -57 -184 -144 -9 -14 -35 -31
-57 -37 -35 -11 -50 -9 -127 14 -49 15 -198 56 -333 92 -293 79 -385 108 -465
148 -236 116 -404 340 -436 577 -25 188 60 376 212 467 94 56 191 73 300 53z
m1513 -218 c396 -114 630 -483 550 -870 -19 -92 -70 -206 -123 -277 l-39 -52
61 -44 c61 -45 167 -162 167 -186 0 -7 -5 -13 -12 -13 -6 0 -22 -10 -35 -22
-33 -31 -32 -90 3 -125 22 -22 32 -25 74 -21 l48 5 11 -43 c6 -24 11 -48 11
-53 0 -7 -32 -11 -85 -11 -84 0 -86 1 -96 28 -40 98 -91 184 -144 241 -51 55
-151 131 -187 143 -8 3 -5 15 7 35 18 30 18 31 -3 58 -39 49 -20 130 36 159
36 19 87 112 107 197 59 250 -57 495 -286 608 -134 66 -172 71 -594 71 l-370
0 -75 90 c-41 50 -77 95 -79 101 -2 7 155 9 485 7 472 -4 492 -5 568 -26z
m886 -15 c54 -27 104 -96 114 -156 13 -86 -28 -182 -101 -231 -32 -22 -48 -25
-119 -25 -75 0 -86 3 -126 30 -52 36 -98 120 -98 178 0 179 171 284 330 204z
m-4870 -205 c6 -59 -2 -82 -29 -82 -30 0 -45 28 -42 78 4 59 7 64 39 60 25 -3
27 -8 32 -56z m142 -2 c8 -65 -5 -86 -46 -76 -24 6 -26 11 -26 59 0 57 13 79
45 75 16 -2 21 -13 27 -58z m138 2 c6 -58 -2 -82 -28 -82 -29 0 -42 21 -42 70
0 51 14 72 45 68 16 -2 21 -13 25 -56z m141 3 c8 -63 -4 -87 -39 -83 -25 3
-27 7 -30 57 -4 70 2 83 35 79 25 -3 29 -8 34 -53z m137 43 c7 -7 12 -33 12
-59 0 -38 -5 -51 -22 -63 -34 -24 -58 3 -58 64 0 48 13 70 40 70 9 0 21 -5 28
-12z m-826 -115 c50 -45 -11 -126 -68 -89 -31 21 -39 52 -20 81 19 29 60 33
88 8z m4113 -68 c136 -36 260 -138 307 -252 19 -49 23 -76 23 -173 0 -109 -2
-119 -32 -182 -39 -82 -111 -161 -178 -196 -40 -20 -68 -27 -142 -30 -86 -4
-92 -3 -103 18 -6 12 -27 28 -47 36 -98 42 -180 -81 -104 -157 33 -33 93 -40
127 -14 21 16 164 22 164 6 0 -4 -5 -22 -11 -39 -9 -27 -16 -31 -57 -35 -26
-3 -71 -12 -101 -21 -80 -23 -120 -11 -195 62 -34 32 -73 68 -89 79 l-27 21
34 22 c19 11 38 31 42 43 37 122 205 167 296 80 24 -23 33 -25 73 -20 26 4 51
10 56 13 6 3 -2 26 -17 52 -26 44 -26 46 -8 56 43 24 102 93 113 131 36 129
-16 245 -131 295 -48 21 -72 24 -245 28 l-193 5 0 93 0 94 193 0 c141 0 209
-4 252 -15z m-3315 -82 l0 -63 -305 0 c-329 0 -341 -2 -411 -55 -95 -73 -102
-248 -12 -332 51 -48 90 -53 388 -53 753 0 1144 -100 1503 -385 31 -25 57 -49
57 -53 -1 -15 -196 -160 -317 -236 -1 -1 7 -33 18 -71 11 -39 23 -112 26 -162
7 -108 14 -103 -101 -73 -97 25 -170 66 -229 129 -46 49 -47 49 -84 39 -21 -5
-42 -13 -46 -18 -12 -11 105 -132 163 -170 58 -37 168 -76 240 -86 28 -4 53
-10 56 -15 9 -15 -27 -132 -67 -217 -144 -310 -425 -492 -824 -534 l-112 -11
-29 -91 c-16 -50 -57 -149 -92 -220 l-64 -130 -19 25 c-25 32 -103 210 -142
324 l-31 93 -82 6 c-176 15 -374 76 -511 158 -80 48 -202 165 -262 252 -56 81
-113 198 -131 268 -6 24 -13 51 -16 61 -5 16 15 17 320 17 l326 0 0 -37 c0
-85 80 -191 160 -213 20 -6 194 -10 399 -10 350 0 366 1 408 21 91 44 144 153
123 252 -15 70 -50 120 -107 154 -45 26 -56 28 -185 31 l-136 4 -7 -49 c-13
-99 -37 -190 -65 -243 -16 -30 -29 -48 -30 -40 -4 67 -34 182 -65 244 -52 106
-65 115 -188 137 -57 11 -124 25 -148 32 l-44 13 3 65 c9 185 102 388 252 551
33 37 60 69 60 72 0 3 -20 6 -43 6 -41 0 -48 -5 -109 -68 -141 -146 -225 -315
-249 -501 -14 -107 -2 -104 -146 -35 -110 53 -231 141 -311 229 l-59 65 -69
-24 c-103 -35 -220 -97 -312 -165 -45 -34 -84 -61 -86 -61 -2 0 1 21 8 48 42
156 150 298 315 411 l75 51 86 0 86 0 74 76 c41 41 106 98 143 126 45 34 66
56 63 65 -4 8 -6 21 -6 29 0 20 -22 17 -85 -11 l-56 -24 -10 27 c-5 15 -12 33
-14 40 -3 9 -41 12 -145 12 l-140 0 0 -50 0 -50 44 0 c25 0 48 5 51 10 18 29
85 -5 85 -43 0 -26 -28 -57 -51 -57 -10 0 -62 -22 -116 -50 -54 -27 -98 -50
-99 -50 -1 0 -7 28 -13 63 -12 70 -15 228 -5 301 l7 46 273 0 273 0 24 54 c50
109 156 192 266 207 31 4 181 7 333 6 l278 -2 0 -62z m2259 -792 l34 -18 -59
-47 c-33 -25 -93 -83 -134 -129 -40 -45 -80 -85 -89 -89 -9 -4 -38 -7 -64 -7
l-48 -1 48 61 c59 76 250 249 273 248 3 0 20 -8 39 -18z m429 -31 c43 -22 103
-61 136 -86 l58 -46 -68 -69 c-40 -41 -75 -68 -84 -66 -23 6 -330 219 -330
228 0 10 65 44 119 64 58 22 89 17 169 -25z m-208 -229 c91 -62 165 -115 165
-120 0 -5 -29 -39 -64 -76 l-64 -67 -173 116 c-95 64 -175 120 -178 125 -7 10
131 144 141 137 5 -2 82 -54 173 -115z m871 -1 c174 -33 302 -158 338 -328 50
-238 -95 -480 -333 -555 -64 -20 -92 -22 -276 -22 l-205 0 -3 97 -3 96 208 4
c204 3 209 4 265 31 166 81 199 321 61 437 l-40 34 23 50 24 51 -43 13 c-26 8
-80 12 -141 10 l-99 -3 -13 35 c-7 19 -13 38 -13 42 -1 7 50 12 150 16 26 1
70 -3 100 -8z m-1097 -211 c83 -56 159 -109 168 -118 17 -16 14 -20 -50 -83
l-67 -67 -157 102 -157 103 35 59 c52 88 64 105 70 105 4 0 74 -46 158 -101z
m-372 -51 c-28 -57 -58 -129 -67 -160 -15 -54 -18 -57 -62 -72 -26 -9 -48 -14
-51 -12 -8 9 51 184 89 263 l39 82 48 3 c26 2 49 2 51 1 2 -1 -20 -48 -47
-105z m2308 -108 l0 -40 -90 0 -90 0 0 40 0 40 90 0 90 0 0 -40z m-2101 -95
c72 -47 131 -88 131 -92 0 -12 -124 -133 -136 -133 -9 0 -157 85 -202 116 -11
7 55 194 68 194 5 0 68 -38 139 -85z m2087 -107 c-4 -29 -21 -93 -37 -143
-102 -305 -364 -520 -697 -570 -106 -16 -509 -20 -870 -8 l-203 6 3 146 3 145
85 43 c47 24 132 79 190 122 l105 79 3 -41 c3 -39 0 -45 -40 -81 -55 -49 -138
-106 -206 -140 -47 -24 -53 -30 -50 -54 l3 -27 450 3 c423 3 567 11 581 33 3
5 -2 19 -10 31 -23 33 -20 72 9 106 32 39 74 48 115 27 28 -15 39 -30 54 -78
5 -17 7 -17 38 -1 116 59 248 243 289 405 l13 49 89 0 90 0 -7 -52z m-2236
-164 c41 -25 77 -48 79 -50 2 -2 -14 -27 -35 -56 -22 -29 -47 -65 -57 -80 -15
-24 -24 -28 -62 -28 -43 0 -45 1 -45 29 0 31 17 170 25 209 3 12 9 22 13 22 4
0 41 -21 82 -46z m1855 1 c29 -28 32 -61 9 -93 -45 -64 -143 -36 -144 41 0 38
40 77 80 77 19 0 40 -9 55 -25z m-1545 -316 c0 -34 -359 -353 -377 -336 -10
11 -40 151 -48 224 l-7 70 144 6 c101 4 162 11 208 25 81 24 80 24 80 11z"/>
<path d="M2354 4411 c-34 -15 -64 -60 -64 -98 0 -71 43 -113 116 -113 85 0
127 113 67 180 -30 33 -82 46 -119 31z m80 -77 c9 -8 16 -22 16 -29 0 -36 -62
-59 -88 -33 -16 16 -15 65 1 71 25 11 56 7 71 -9z"/>
<path d="M2681 4394 c-68 -49 -57 -163 19 -194 35 -14 92 -6 110 15 16 19 37
19 47 0 7 -12 20 -1 62 51 29 36 51 67 49 68 -2 1 -41 17 -88 36 -104 40 -166
48 -199 24z m97 -56 c7 -7 12 -25 12 -40 0 -40 -39 -58 -75 -34 -29 19 -32 42
-8 68 18 21 53 24 71 6z"/>
<path d="M6230 4920 c-22 -22 -18 -45 11 -61 43 -23 78 30 43 65 -20 21 -30
20 -54 -4z"/>
<path d="M3760 4750 c-125 -21 -220 -106 -263 -234 -26 -75 -23 -200 7 -280
69 -192 238 -370 412 -436 71 -26 776 -220 802 -220 12 0 25 15 36 41 10 22
28 44 40 49 11 5 32 19 45 30 21 18 22 22 9 38 -15 16 -272 328 -548 663 -171
207 -235 271 -308 308 -48 24 -159 55 -181 50 -3 -1 -26 -5 -51 -9z m159 -120
c73 -34 132 -84 216 -185 44 -53 108 -129 142 -168 34 -40 60 -74 58 -76 -2
-2 -62 27 -132 65 -303 161 -342 175 -530 190 -46 4 -83 8 -83 11 0 17 34 76
61 108 65 74 176 96 268 55z m-124 -295 c76 -16 165 -56 313 -139 69 -39 119
-77 172 -130 41 -42 71 -76 67 -76 -3 0 -106 32 -228 71 -231 73 -338 99 -419
99 l-47 0 -31 63 c-16 34 -33 77 -37 95 l-7 32 74 0 c40 0 104 -7 143 -15z
m76 -309 c52 -14 132 -39 179 -55 47 -17 148 -52 225 -77 77 -26 156 -55 175
-64 36 -19 121 -100 105 -100 -6 0 -75 18 -155 39 -80 22 -206 56 -280 77
-162 43 -260 89 -331 154 -65 59 -56 62 82 26z"/>
<path d="M3980 4486 c-27 -33 18 -72 48 -42 13 13 14 20 6 34 -15 23 -38 26
-54 8z"/>
<path d="M5682 3508 c-19 -19 -14 -56 8 -63 43 -14 69 44 31 65 -24 13 -24 13
-39 -2z"/>
<path d="M5757 3354 c-11 -11 -8 -52 3 -59 6 -3 19 -3 31 0 28 9 23 59 -6 63
-12 2 -24 0 -28 -4z"/>
<path d="M5870 3245 c-15 -18 -7 -43 16 -52 24 -9 46 24 33 48 -12 23 -32 24
-49 4z"/>
<path d="M6140 4539 c-71 -28 -103 -103 -75 -175 31 -80 125 -117 193 -75 99
63 94 204 -8 245 -46 18 -74 19 -110 5z"/>
<path d="M1038 3640 c-109 -82 -257 -262 -230 -279 5 -3 12 -17 13 -30 2 -14
9 -26 15 -28 5 -2 37 36 70 83 35 51 98 123 153 175 94 87 95 88 76 109 -10
11 -21 20 -24 20 -3 0 -36 -23 -73 -50z"/>
<path d="M1274 3518 c-138 -131 -261 -392 -194 -413 11 -3 20 -11 20 -16 0
-24 18 -5 24 25 17 92 169 343 251 414 19 17 35 34 35 37 0 3 -18 5 -41 5 -35
0 -47 -7 -95 -52z"/>
<path d="M1761 3503 c-91 -97 -157 -212 -197 -346 -33 -112 -33 -119 13 -115
l36 3 15 70 c26 132 101 277 208 403 l37 42 -29 0 c-21 0 -41 -14 -83 -57z"/>
<path d="M1928 3513 c-151 -163 -237 -356 -234 -528 l1 -70 33 -3 32 -3 0 50
c0 169 103 410 233 549 l50 52 -35 0 c-29 0 -43 -8 -80 -47z"/>
<path d="M2094 3518 c-152 -160 -236 -336 -250 -528 l-7 -90 119 0 c107 0 330
22 341 34 14 13 -54 30 -135 34 l-94 4 34 35 33 35 126 -4 c113 -4 133 -8 183
-32 l55 -27 93 36 c109 43 272 127 371 191 l70 45 -49 35 c-169 121 -408 213
-659 254 -175 29 -183 28 -231 -22z m346 -113 c164 -25 352 -87 451 -151 l44
-28 -40 -7 c-22 -4 -110 -15 -195 -24 -85 -9 -218 -29 -294 -46 -164 -34 -181
-35 -223 -9 -92 56 -87 215 7 262 43 22 121 23 250 3z m-385 -260 c0 -27 -3
-30 -30 -30 -21 0 -31 5 -33 18 -6 33 6 49 35 45 24 -3 28 -8 28 -33z"/>
<path d="M2214 3305 c-32 -49 11 -106 69 -92 43 11 53 84 14 109 -26 16 -66 8
-83 -17z"/>
<path d="M2429 2529 c-52 -56 -34 -150 35 -183 43 -20 80 -13 118 22 76 70 25
192 -79 192 -37 0 -50 -5 -74 -31z m116 -49 c27 -29 10 -74 -28 -78 -36 -4
-57 13 -57 49 0 47 53 65 85 29z"/>
<path d="M930 2363 c-87 -78 -8 -223 104 -192 45 13 76 58 76 113 0 30 -7 45
-34 72 -45 45 -101 47 -146 7z m102 -45 c42 -34 18 -91 -35 -86 -42 4 -60 47
-32 78 21 23 44 26 67 8z"/>
<path d="M2339 2254 c-54 -58 -207 -122 -326 -139 l-53 -7 0 -45 0 -45 53 7
c159 20 300 78 395 161 l53 47 -38 23 c-48 30 -54 30 -84 -2z"/>
<path d="M1650 2188 c-119 -60 -112 -230 12 -282 62 -26 110 -16 159 33 28 28
39 48 44 83 12 83 -20 140 -97 173 -50 20 -66 19 -118 -7z m118 -88 c31 -29
38 -65 18 -96 -45 -68 -146 -45 -146 34 0 71 78 108 128 62z"/>
<path d="M1177 2162 c-15 -15 -27 -31 -27 -36 0 -16 153 -78 226 -91 43 -7 82
-11 86 -9 4 3 8 23 8 44 0 35 -3 40 -27 46 -98 22 -151 38 -185 55 -48 24 -49
24 -81 -9z"/>
<path d="M5426 2968 c-27 -39 18 -80 52 -46 16 16 15 33 -4 52 -21 21 -30 20
-48 -6z"/>
<path d="M6010 2525 c-19 -23 -8 -50 20 -50 16 0 26 6 28 18 4 18 -14 47 -28
47 -4 0 -13 -7 -20 -15z"/>
<path d="M5504 2166 c-10 -26 4 -48 28 -44 17 2 23 10 23 28 0 18 -6 26 -23
28 -13 2 -25 -3 -28 -12z"/>
<path d="M5685 2351 c-7 -12 12 -24 25 -16 11 7 4 25 -10 25 -5 0 -11 -4 -15
-9z"/>
</g>
</svg>
